<svg width="300" height="300" viewBox="0 0 300 300" fill="none" xmlns="http://www.w3.org/2000/svg">
<rect width="300" height="300" fill="white"/>
<path d="M64.682 272.806C61.982 272.878 60.344 271.978 59.768 270.106C58.904 267.406 60.326 266.092 64.034 266.164C64.754 266.164 65.474 266.164 66.194 266.164C67.13 266.164 67.598 265.732 67.598 264.868V250.72V236.572H50.48C48.392 236.572 47.348 235.528 47.348 233.44C47.348 231.352 48.392 230.308 50.48 230.308H67.598V225.448C67.598 223.288 68.696 222.208 70.892 222.208C73.052 222.208 74.132 223.288 74.132 225.448V230.308H85.04C83.492 229.264 81.962 228.31 80.45 227.446C78.578 226.438 78.38 225.124 79.856 223.504C80.9 222.388 82.106 222.154 83.474 222.802C85.886 224.062 87.632 225.034 88.712 225.718C89.468 226.222 89.882 226.906 89.954 227.77C90.026 228.598 89.72 229.408 89.036 230.2L88.928 230.308H91.736C93.824 230.308 94.868 231.352 94.868 233.44C94.868 235.528 93.824 236.572 91.736 236.572H84.446H74.132V237.166C75.356 240.622 77.03 244.06 79.154 247.48C81.458 245.248 83.618 242.836 85.634 240.244C86.318 239.308 87.038 238.786 87.794 238.678C88.55 238.57 89.396 238.858 90.332 239.542C92.312 240.91 92.438 242.512 90.71 244.348C88.01 247.228 85.31 249.892 82.61 252.34C85.454 255.868 88.712 258.784 92.384 261.088C93.788 261.88 94.634 262.69 94.922 263.518C95.174 264.382 94.814 265.408 93.842 266.596C93.086 267.532 92.294 268.036 91.466 268.108C90.674 268.18 89.756 267.892 88.712 267.244C83.024 263.428 78.164 257.83 74.132 250.45V264.868C74.132 266.812 73.916 268.27 73.484 269.242C73.052 270.25 72.278 271.024 71.162 271.564C69.794 272.284 67.634 272.698 64.682 272.806ZM52.478 266.11C50.606 267.226 49.04 266.848 47.78 264.976C47.06 263.896 46.772 262.996 46.916 262.276C47.024 261.484 47.636 260.8 48.752 260.224C49.508 259.828 50.696 259.198 52.316 258.334C52.964 257.938 53.468 257.65 53.828 257.47C55.88 256.354 58.094 255.094 60.47 253.69C62.486 252.538 63.908 253.078 64.736 255.31C65.348 257.038 64.916 258.37 63.44 259.306C62.792 259.702 61.784 260.332 60.416 261.196C59.084 262.024 58.076 262.654 57.392 263.086C56.744 263.482 55.808 264.058 54.584 264.814C53.648 265.39 52.946 265.822 52.478 266.11ZM60.362 249.532C58.454 250.936 56.906 250.72 55.718 248.884C54.998 247.948 54.44 247.246 54.044 246.778C53.936 246.634 53.756 246.418 53.504 246.13C52.712 245.23 52.118 244.582 51.722 244.186C50.246 242.602 50.408 241.162 52.208 239.866C53.612 238.894 54.908 238.948 56.096 240.028C57.428 241.36 58.4 242.368 59.012 243.052C59.804 243.88 60.524 244.708 61.172 245.536C62.216 247.048 61.946 248.38 60.362 249.532ZM134.828 271.24C133.352 272.392 132.038 272.302 130.886 270.97C129.59 269.458 129.824 268.108 131.588 266.92C132.092 266.56 132.452 266.272 132.668 266.056H123.326C122.282 266.056 121.436 265.732 120.788 265.084C120.14 264.436 119.816 263.59 119.816 262.546V249.964C119.816 248.92 120.14 248.074 120.788 247.426C121.436 246.778 122.282 246.454 123.326 246.454H131.102C132.146 246.454 132.992 246.778 133.64 247.426C134.288 248.074 134.612 248.92 134.612 249.964V264.274C135.8 263.122 136.988 261.754 138.176 260.17C137.492 256.066 136.97 250.702 136.61 244.078H127.214H120.248C118.592 244.078 117.764 243.232 117.764 241.54C117.764 239.884 118.592 239.056 120.248 239.056H121.166C121.13 238.12 120.986 237.004 120.734 235.708C120.482 234.736 120.554 233.926 120.95 233.278C121.346 232.594 122.012 232.126 122.948 231.874L123.218 231.82H120.626C120.086 231.82 119.654 231.658 119.33 231.334C119.006 231.01 118.844 230.578 118.844 230.038V229.876H116.846V251.368V270.16C116.846 271.96 115.946 272.86 114.146 272.86C112.346 272.86 111.446 271.96 111.446 270.16V263.572L103.616 265.246C101.636 265.642 100.466 264.868 100.106 262.924C99.746 260.908 100.556 259.774 102.536 259.522L102.752 259.468V229.876H102.644C102.032 229.876 101.546 229.66 101.186 229.228C100.826 228.76 100.646 228.184 100.646 227.5C100.646 226.528 100.88 225.736 101.348 225.124C101.888 224.476 102.608 224.152 103.508 224.152H116.252C117.116 224.152 117.8 224.404 118.304 224.908C118.808 225.412 119.06 226.096 119.06 226.96V227.122H124.352V224.962C124.352 223.162 125.27 222.262 127.106 222.262C128.906 222.262 129.806 223.162 129.806 224.962V227.122H132.938C134.486 227.122 135.26 227.896 135.26 229.444C135.26 231.028 134.486 231.82 132.938 231.82H130.616L132.614 232.198C133.694 232.414 134.072 233.098 133.748 234.25C133.568 234.79 133.298 235.6 132.938 236.68C132.614 237.796 132.362 238.588 132.182 239.056H136.448C136.304 234.736 136.196 230.11 136.124 225.178C136.052 223.162 136.988 222.154 138.932 222.154C140.804 222.154 141.74 223.09 141.74 224.962V226.258L143.576 225.286C144.62 224.71 145.52 224.89 146.276 225.826C147.572 227.554 148.688 229.354 149.624 231.226C149.948 231.91 150.002 232.486 149.786 232.954C149.606 233.386 149.156 233.8 148.436 234.196C147.608 234.664 146.924 234.844 146.384 234.736C145.808 234.592 145.34 234.106 144.98 233.278C143.972 231.154 142.892 229.282 141.74 227.662C141.74 231.622 141.794 235.42 141.902 239.056H147.68C149.336 239.056 150.164 239.884 150.164 241.54C150.164 243.232 149.336 244.078 147.68 244.078H142.118C142.226 246.922 142.388 249.568 142.604 252.016C143.18 250.504 143.576 249.352 143.792 248.56C144.296 246.904 145.358 246.256 146.978 246.616C148.778 247.012 149.39 248.11 148.814 249.91C147.518 253.978 145.808 257.74 143.684 261.196C144.116 263.86 144.674 265.228 145.358 265.3C145.61 265.3 145.826 264.94 146.006 264.22C146.186 262.6 146.528 261.466 147.032 260.818C147.644 260.062 148.454 260.098 149.462 260.926C149.93 261.322 150.2 262.096 150.272 263.248C150.308 264.148 150.236 265.048 150.056 265.948C148.904 270.52 147.248 272.806 145.088 272.806C142.784 272.77 140.966 270.718 139.634 266.65C138.266 268.27 136.664 269.8 134.828 271.24ZM126.134 261.628H127.16H129.644V258.334H127.16H124.676V260.17C124.676 261.142 125.162 261.628 126.134 261.628ZM107.936 258.55L111.446 257.902V254.986V252.016H107.936V255.31V258.55ZM124.676 254.122H127.16H129.644V252.34C129.644 251.404 129.176 250.936 128.24 250.936H127.16H125.756C125.036 250.936 124.676 251.296 124.676 252.016V254.122ZM107.936 246.724H111.446V243.862V240.946H107.936V243.862V246.724ZM123.38 239.056H130.67L129.212 238.732C128.42 238.552 128.114 238.102 128.294 237.382C128.33 237.166 128.402 236.86 128.51 236.464C128.654 235.888 128.762 235.456 128.834 235.168C128.942 234.736 129.068 234.088 129.212 233.224C129.392 232.288 128.96 231.82 127.916 231.82H124.136C124.532 232.756 124.856 233.89 125.108 235.222C125.252 236.086 125.36 236.716 125.432 237.112C125.468 237.508 125.36 237.886 125.108 238.246C124.856 238.57 124.514 238.786 124.082 238.894L123.38 239.056ZM107.936 235.708H111.446V232.792V229.876H107.936V232.792V235.708ZM175.922 271.024C173.762 272.428 172.034 272.41 170.738 270.97C168.974 269.062 169.64 267.172 172.736 265.3C177.056 262.096 179.882 257.794 181.214 252.394H173.654C171.602 252.394 170.576 251.368 170.576 249.316C170.576 247.264 171.602 246.238 173.654 246.238H182.078C182.186 245.122 182.24 243.466 182.24 241.27V236.302H175.922C173.942 236.302 172.952 235.294 172.952 233.278C172.952 231.298 173.942 230.308 175.922 230.308H182.24V225.34C182.24 223.18 183.32 222.1 185.48 222.1C187.64 222.1 188.72 223.18 188.72 225.34V230.308H196.82C197.864 230.308 198.71 230.632 199.358 231.28C200.006 231.928 200.33 232.774 200.33 233.818V238.3V246.238H200.6C202.652 246.238 203.678 247.264 203.678 249.316C203.678 251.368 202.652 252.394 200.6 252.394H197.36H191.042C193.166 257.722 196.244 261.772 200.276 264.544C201.824 265.336 202.76 266.164 203.084 267.028C203.48 268 203.192 269.116 202.22 270.376C201.5 271.312 200.708 271.816 199.844 271.888C199.016 271.96 198.044 271.69 196.928 271.078C192.428 268.09 188.918 263.428 186.398 257.092C184.274 262.888 180.782 267.532 175.922 271.024ZM163.556 272.806C161.432 272.806 160.37 271.744 160.37 269.62V247.48V225.286C160.37 223.162 161.432 222.1 163.556 222.1C165.68 222.1 166.742 223.162 166.742 225.286V232.306L168.362 231.604C169.262 231.28 169.91 231.532 170.306 232.36C171.602 235.06 172.592 237.472 173.276 239.596C173.492 240.28 173.474 240.838 173.222 241.27C173.006 241.666 172.538 242.026 171.818 242.35C170.918 242.782 170.216 242.908 169.712 242.728C169.136 242.548 168.722 242.008 168.47 241.108C168.182 240.1 167.606 238.48 166.742 236.248V254.554V269.62C166.742 271.744 165.68 272.806 163.556 272.806ZM157.508 247.912C157.04 248.128 156.392 248.092 155.564 247.804C153.98 247.264 153.404 246.274 153.836 244.834C154.196 243.538 154.52 241.99 154.808 240.19C155.168 237.886 155.402 236.176 155.51 235.06C155.654 233.548 156.554 232.9 158.21 233.116C159.614 233.332 160.298 234.106 160.262 235.438C160.154 237.094 159.92 239.038 159.56 241.27C159.308 242.854 158.966 244.564 158.534 246.4C158.318 247.192 157.976 247.696 157.508 247.912ZM188.558 246.238H194.066V241.27V237.922C194.066 236.842 193.526 236.302 192.446 236.302H188.72V241.27C188.72 242.35 188.702 243.178 188.666 243.754C188.666 244.258 188.63 245.032 188.558 246.076V246.238ZM212.318 272.104C211.67 272.212 210.95 271.978 210.158 271.402C209.15 270.718 208.628 269.998 208.592 269.242C208.556 268.486 208.97 267.64 209.834 266.704C209.978 266.488 210.176 266.182 210.428 265.786C210.716 265.39 210.914 265.102 211.022 264.922C211.67 263.878 212.174 262.978 212.534 262.222C213.218 260.386 214.514 259.72 216.422 260.224C218.51 260.764 219.158 262.024 218.366 264.004C217.826 265.156 217.178 266.362 216.422 267.622C215.63 268.918 214.91 269.998 214.262 270.862C213.614 271.618 212.966 272.032 212.318 272.104ZM228.68 269.458C226.808 270.43 225.458 269.98 224.63 268.108C224.45 267.712 224.144 267.118 223.712 266.326C223.244 265.462 222.812 264.742 222.416 264.166C221.264 262.474 221.66 261.196 223.604 260.332C225.008 259.72 226.16 259.99 227.06 261.142C227.492 261.718 228.104 262.618 228.896 263.842C229.184 264.31 229.58 264.976 230.084 265.84C230.804 267.46 230.336 268.666 228.68 269.458ZM235.484 270.592C234.44 270.592 233.594 270.268 232.946 269.62C232.298 268.972 231.974 268.126 231.974 267.082V251.746C231.974 250.702 232.298 249.856 232.946 249.208C233.594 248.56 234.44 248.236 235.484 248.236H240.128V235.222V225.34C240.128 223.252 241.19 222.208 243.314 222.208C245.402 222.208 246.446 223.252 246.446 225.34V233.818H255.194C257.138 233.818 258.11 234.79 258.11 236.734C258.11 238.714 257.138 239.704 255.194 239.704H246.446V248.236H252.44C253.484 248.236 254.33 248.56 254.978 249.208C255.626 249.856 255.95 250.702 255.95 251.746V267.082C255.95 268.126 255.626 268.972 254.978 269.62C254.33 270.268 253.484 270.592 252.44 270.592H243.8H235.484ZM239.534 264.76H243.8H248.12C249.2 264.76 249.74 264.22 249.74 263.14V255.526C249.74 254.446 249.2 253.906 248.12 253.906H243.8H239.534C238.454 253.906 237.914 254.446 237.914 255.526V263.14C237.914 264.22 238.454 264.76 239.534 264.76ZM214.1 259.09C213.056 259.09 212.21 258.766 211.562 258.118C210.914 257.47 210.59 256.624 210.59 255.58V227.716C210.59 226.672 210.914 225.826 211.562 225.178C212.21 224.53 213.056 224.206 214.1 224.206H225.602C226.646 224.206 227.492 224.53 228.14 225.178C228.788 225.826 229.112 226.672 229.112 227.716V241.648V255.58C229.112 256.624 228.788 257.47 228.14 258.118C227.492 258.766 226.646 259.09 225.602 259.09H219.824H214.1ZM218.042 253.96H219.716H221.552C222.524 253.96 223.01 253.474 223.01 252.502V248.884H219.662H216.422V252.34C216.422 253.42 216.962 253.96 218.042 253.96ZM216.422 244.132H219.716H223.01V239.11H219.662H216.422V244.132ZM216.422 234.304H219.716H223.01V231.01C223.01 229.93 222.47 229.39 221.39 229.39H219.662H217.88C216.908 229.39 216.422 229.876 216.422 230.848V234.304Z" fill="#FFCC00"/>
<circle cx="150" cy="116" r="90" fill="#FFCC00"/>
<path d="M169.752 129.371H196.8V74.2143C196.8 71.4355 194.672 69.2 192.027 69.2H112.473C109.828 69.2 107.7 71.4355 107.7 74.2143V157.786C107.7 160.564 109.828 162.8 112.473 162.8H164.979V134.386C164.979 131.628 167.127 129.371 169.752 129.371ZM195.408 140.863L175.917 161.338C175.022 162.278 173.809 162.8 172.536 162.8H171.343V136.057H196.8V137.332C196.8 138.648 196.303 139.922 195.408 140.863Z" fill="#FFF7DB"/>
</svg>
