<svg width="660" height="140" viewBox="0 0 660 140" fill="none" xmlns="http://www.w3.org/2000/svg">
<g clip-path="url(#clip0_13_10)">
<circle cx="70" cy="70" r="70" fill="#FFCC00"/>
<path d="M85.3625 80.4H106.4V37.5C106.4 35.3387 104.745 33.6 102.688 33.6H40.8125C38.7552 33.6 37.1 35.3387 37.1 37.5V102.5C37.1 104.661 38.7552 106.4 40.8125 106.4H81.65V84.3C81.65 82.155 83.3207 80.4 85.3625 80.4ZM105.317 89.3375L90.1579 105.263C89.4618 105.994 88.5182 106.4 87.5282 106.4H86.6V85.6H106.4V86.5913C106.4 87.615 106.013 88.6063 105.317 89.3375Z" fill="#FFF7DB"/>
<path d="M211.492 128.036C205.292 128.201 201.531 126.135 200.208 121.836C198.224 115.636 201.489 112.619 210.004 112.784C211.657 112.784 213.311 112.784 214.964 112.784C217.113 112.784 218.188 111.792 218.188 109.808V77.32V44.832H178.88C174.085 44.832 171.688 42.4347 171.688 37.64C171.688 32.8453 174.085 30.448 178.88 30.448H218.188V19.288C218.188 14.328 220.709 11.848 225.752 11.848C230.712 11.848 233.192 14.328 233.192 19.288V30.448H258.24C254.685 28.0507 251.172 25.86 247.7 23.876C243.401 21.5613 242.947 18.544 246.336 14.824C248.733 12.2613 251.503 11.724 254.644 13.212C260.183 16.1053 264.192 18.3373 266.672 19.908C268.408 21.0653 269.359 22.636 269.524 24.62C269.689 26.5213 268.987 28.3813 267.416 30.2L267.168 30.448H273.616C278.411 30.448 280.808 32.8453 280.808 37.64C280.808 42.4347 278.411 44.832 273.616 44.832H256.876H233.192V46.196C236.003 54.132 239.847 62.0267 244.724 69.88C250.015 64.7547 254.975 59.216 259.604 53.264C261.175 51.1147 262.828 49.916 264.564 49.668C266.3 49.42 268.243 50.0813 270.392 51.652C274.939 54.7933 275.228 58.472 271.26 62.688C265.06 69.3013 258.86 75.4187 252.66 81.04C259.191 89.1413 266.672 95.8373 275.104 101.128C278.328 102.947 280.271 104.807 280.932 106.708C281.511 108.692 280.684 111.048 278.452 113.776C276.716 115.925 274.897 117.083 272.996 117.248C271.177 117.413 269.069 116.752 266.672 115.264C253.611 106.501 242.451 93.6467 233.192 76.7V109.808C233.192 114.272 232.696 117.62 231.704 119.852C230.712 122.167 228.935 123.944 226.372 125.184C223.231 126.837 218.271 127.788 211.492 128.036ZM183.468 112.66C179.169 115.223 175.573 114.355 172.68 110.056C171.027 107.576 170.365 105.509 170.696 103.856C170.944 102.037 172.349 100.467 174.912 99.144C176.648 98.2347 179.376 96.788 183.096 94.804C184.584 93.8947 185.741 93.2333 186.568 92.82C191.28 90.2573 196.364 87.364 201.82 84.14C206.449 81.4947 209.715 82.7347 211.616 87.86C213.021 91.828 212.029 94.8867 208.64 97.036C207.152 97.9453 204.837 99.392 201.696 101.376C198.637 103.277 196.323 104.724 194.752 105.716C193.264 106.625 191.115 107.948 188.304 109.684C186.155 111.007 184.543 111.999 183.468 112.66ZM201.572 74.592C197.191 77.816 193.636 77.32 190.908 73.104C189.255 70.9547 187.973 69.3427 187.064 68.268C186.816 67.9373 186.403 67.4413 185.824 66.78C184.005 64.7133 182.641 63.2253 181.732 62.316C178.343 58.6787 178.715 55.372 182.848 52.396C186.072 50.164 189.048 50.288 191.776 52.768C194.835 55.8267 197.067 58.1413 198.472 59.712C200.291 61.6133 201.944 63.5147 203.432 65.416C205.829 68.888 205.209 71.9467 201.572 74.592ZM372.568 124.44C369.179 127.085 366.161 126.879 363.516 123.82C360.54 120.348 361.077 117.248 365.128 114.52C366.285 113.693 367.112 113.032 367.608 112.536H346.156C343.759 112.536 341.816 111.792 340.328 110.304C338.84 108.816 338.096 106.873 338.096 104.476V75.584C338.096 73.1867 338.84 71.244 340.328 69.756C341.816 68.268 343.759 67.524 346.156 67.524H364.012C366.409 67.524 368.352 68.268 369.84 69.756C371.328 71.244 372.072 73.1867 372.072 75.584V108.444C374.8 105.799 377.528 102.657 380.256 99.02C378.685 89.596 377.487 77.2787 376.66 62.068H355.084H339.088C335.285 62.068 333.384 60.1253 333.384 56.24C333.384 52.4373 335.285 50.536 339.088 50.536H341.196C341.113 48.3867 340.783 45.824 340.204 42.848C339.625 40.616 339.791 38.756 340.7 37.268C341.609 35.6973 343.139 34.6227 345.288 34.044L345.908 33.92H339.956C338.716 33.92 337.724 33.548 336.98 32.804C336.236 32.06 335.864 31.068 335.864 29.828V29.456H331.276V78.808V121.96C331.276 126.093 329.209 128.16 325.076 128.16C320.943 128.16 318.876 126.093 318.876 121.96V106.832L300.896 110.676C296.349 111.585 293.663 109.808 292.836 105.344C292.009 100.715 293.869 98.1107 298.416 97.532L298.912 97.408V29.456H298.664C297.259 29.456 296.143 28.96 295.316 27.968C294.489 26.8933 294.076 25.5707 294.076 24C294.076 21.768 294.613 19.9493 295.688 18.544C296.928 17.056 298.581 16.312 300.648 16.312H329.912C331.896 16.312 333.467 16.8907 334.624 18.048C335.781 19.2053 336.36 20.776 336.36 22.76V23.132H348.512V18.172C348.512 14.0387 350.62 11.972 354.836 11.972C358.969 11.972 361.036 14.0387 361.036 18.172V23.132H368.228C371.783 23.132 373.56 24.9093 373.56 28.464C373.56 32.1013 371.783 33.92 368.228 33.92H362.896L367.484 34.788C369.964 35.284 370.832 36.8547 370.088 39.5C369.675 40.74 369.055 42.6 368.228 45.08C367.484 47.6427 366.905 49.4613 366.492 50.536H376.288C375.957 40.616 375.709 29.9933 375.544 18.668C375.379 14.0387 377.528 11.724 381.992 11.724C386.291 11.724 388.44 13.8733 388.44 18.172V21.148L392.656 18.916C395.053 17.5933 397.12 18.0067 398.856 20.156C401.832 24.124 404.395 28.2573 406.544 32.556C407.288 34.1267 407.412 35.4493 406.916 36.524C406.503 37.516 405.469 38.4667 403.816 39.376C401.915 40.4507 400.344 40.864 399.104 40.616C397.781 40.2853 396.707 39.1693 395.88 37.268C393.565 32.3907 391.085 28.092 388.44 24.372C388.44 33.4653 388.564 42.1867 388.812 50.536H402.08C405.883 50.536 407.784 52.4373 407.784 56.24C407.784 60.1253 405.883 62.068 402.08 62.068H389.308C389.556 68.5987 389.928 74.6747 390.424 80.296C391.747 76.824 392.656 74.1787 393.152 72.36C394.309 68.5573 396.748 67.0693 400.468 67.896C404.601 68.8053 406.007 71.3267 404.684 75.46C401.708 84.8013 397.781 93.44 392.904 101.376C393.896 107.493 395.177 110.635 396.748 110.8C397.327 110.8 397.823 109.973 398.236 108.32C398.649 104.6 399.435 101.996 400.592 100.508C401.997 98.772 403.857 98.8547 406.172 100.756C407.247 101.665 407.867 103.443 408.032 106.088C408.115 108.155 407.949 110.221 407.536 112.288C404.891 122.787 401.088 128.036 396.128 128.036C390.837 127.953 386.663 123.241 383.604 113.9C380.463 117.62 376.784 121.133 372.568 124.44ZM352.604 102.368H354.96H360.664V94.804H354.96H349.256V99.02C349.256 101.252 350.372 102.368 352.604 102.368ZM310.816 95.3L318.876 93.812V87.116V80.296H310.816V87.86V95.3ZM349.256 85.132H354.96H360.664V81.04C360.664 78.8907 359.589 77.816 357.44 77.816H354.96H351.736C350.083 77.816 349.256 78.6427 349.256 80.296V85.132ZM310.816 68.144H318.876V61.572V54.876H310.816V61.572V68.144ZM346.28 50.536H363.02L359.672 49.792C357.853 49.3787 357.151 48.3453 357.564 46.692C357.647 46.196 357.812 45.4933 358.06 44.584C358.391 43.2613 358.639 42.2693 358.804 41.608C359.052 40.616 359.341 39.128 359.672 37.144C360.085 34.9947 359.093 33.92 356.696 33.92H348.016C348.925 36.0693 349.669 38.6733 350.248 41.732C350.579 43.716 350.827 45.1627 350.992 46.072C351.075 46.9813 350.827 47.8493 350.248 48.676C349.669 49.42 348.884 49.916 347.892 50.164L346.28 50.536ZM310.816 42.848H318.876V36.152V29.456H310.816V36.152V42.848ZM466.932 123.944C461.972 127.168 458.004 127.127 455.028 123.82C450.977 119.439 452.507 115.099 459.616 110.8C469.536 103.443 476.025 93.564 479.084 81.164H461.724C457.012 81.164 454.656 78.808 454.656 74.096C454.656 69.384 457.012 67.028 461.724 67.028H481.068C481.316 64.4653 481.44 60.6627 481.44 55.62V44.212H466.932C462.385 44.212 460.112 41.8973 460.112 37.268C460.112 32.7213 462.385 30.448 466.932 30.448H481.44V19.04C481.44 14.08 483.92 11.6 488.88 11.6C493.84 11.6 496.32 14.08 496.32 19.04V30.448H514.92C517.317 30.448 519.26 31.192 520.748 32.68C522.236 34.168 522.98 36.1107 522.98 38.508V48.8V67.028H523.6C528.312 67.028 530.668 69.384 530.668 74.096C530.668 78.808 528.312 81.164 523.6 81.164H516.16H501.652C506.529 93.3987 513.597 102.699 522.856 109.064C526.411 110.883 528.56 112.784 529.304 114.768C530.213 117 529.552 119.563 527.32 122.456C525.667 124.605 523.848 125.763 521.864 125.928C519.963 126.093 517.731 125.473 515.168 124.068C504.835 117.207 496.775 106.501 490.988 91.952C486.111 105.261 478.092 115.925 466.932 123.944ZM438.536 128.036C433.659 128.036 431.22 125.597 431.22 120.72V69.88V18.916C431.22 14.0387 433.659 11.6 438.536 11.6C443.413 11.6 445.852 14.0387 445.852 18.916V35.036L449.572 33.424C451.639 32.68 453.127 33.2587 454.036 35.16C457.012 41.36 459.285 46.8987 460.856 51.776C461.352 53.3467 461.311 54.628 460.732 55.62C460.236 56.5293 459.161 57.356 457.508 58.1C455.441 59.092 453.829 59.3813 452.672 58.968C451.349 58.5547 450.399 57.3147 449.82 55.248C449.159 52.9333 447.836 49.2133 445.852 44.088V86.124V120.72C445.852 125.597 443.413 128.036 438.536 128.036ZM424.648 70.872C423.573 71.368 422.085 71.2853 420.184 70.624C416.547 69.384 415.224 67.1107 416.216 63.804C417.043 60.828 417.787 57.2733 418.448 53.14C419.275 47.8493 419.812 43.9227 420.06 41.36C420.391 37.888 422.457 36.4 426.26 36.896C429.484 37.392 431.055 39.1693 430.972 42.228C430.724 46.0307 430.187 50.4947 429.36 55.62C428.781 59.2573 427.996 63.184 427.004 67.4C426.508 69.2187 425.723 70.376 424.648 70.872ZM495.948 67.028H508.596V55.62V47.932C508.596 45.452 507.356 44.212 504.876 44.212H496.32V55.62C496.32 58.1 496.279 60.0013 496.196 61.324C496.196 62.4813 496.113 64.2587 495.948 66.656V67.028ZM550.508 126.424C549.02 126.672 547.367 126.135 545.548 124.812C543.233 123.241 542.035 121.588 541.952 119.852C541.869 118.116 542.82 116.173 544.804 114.024C545.135 113.528 545.589 112.825 546.168 111.916C546.829 111.007 547.284 110.345 547.532 109.932C549.02 107.535 550.177 105.468 551.004 103.732C552.575 99.516 555.551 97.9867 559.932 99.144C564.727 100.384 566.215 103.277 564.396 107.824C563.156 110.469 561.668 113.239 559.932 116.132C558.113 119.108 556.46 121.588 554.972 123.572C553.484 125.308 551.996 126.259 550.508 126.424ZM588.08 120.348C583.781 122.58 580.681 121.547 578.78 117.248C578.367 116.339 577.664 114.975 576.672 113.156C575.597 111.172 574.605 109.519 573.696 108.196C571.051 104.311 571.96 101.376 576.424 99.392C579.648 97.9867 582.293 98.6067 584.36 101.252C585.352 102.575 586.757 104.641 588.576 107.452C589.237 108.527 590.147 110.056 591.304 112.04C592.957 115.76 591.883 118.529 588.08 120.348ZM603.704 122.952C601.307 122.952 599.364 122.208 597.876 120.72C596.388 119.232 595.644 117.289 595.644 114.892V79.676C595.644 77.2787 596.388 75.336 597.876 73.848C599.364 72.36 601.307 71.616 603.704 71.616H614.368V41.732V19.04C614.368 14.2453 616.807 11.848 621.684 11.848C626.479 11.848 628.876 14.2453 628.876 19.04V38.508H648.964C653.428 38.508 655.66 40.74 655.66 45.204C655.66 49.7507 653.428 52.024 648.964 52.024H628.876V71.616H642.64C645.037 71.616 646.98 72.36 648.468 73.848C649.956 75.336 650.7 77.2787 650.7 79.676V114.892C650.7 117.289 649.956 119.232 648.468 120.72C646.98 122.208 645.037 122.952 642.64 122.952H622.8H603.704ZM613.004 109.56H622.8H632.72C635.2 109.56 636.44 108.32 636.44 105.84V88.356C636.44 85.876 635.2 84.636 632.72 84.636H622.8H613.004C610.524 84.636 609.284 85.876 609.284 88.356V105.84C609.284 108.32 610.524 109.56 613.004 109.56ZM554.6 96.54C552.203 96.54 550.26 95.796 548.772 94.308C547.284 92.82 546.54 90.8773 546.54 88.48V24.496C546.54 22.0987 547.284 20.156 548.772 18.668C550.26 17.18 552.203 16.436 554.6 16.436H581.012C583.409 16.436 585.352 17.18 586.84 18.668C588.328 20.156 589.072 22.0987 589.072 24.496V56.488V88.48C589.072 90.8773 588.328 92.82 586.84 94.308C585.352 95.796 583.409 96.54 581.012 96.54H567.744H554.6ZM563.652 84.76H567.496H571.712C573.944 84.76 575.06 83.644 575.06 81.412V73.104H567.372H559.932V81.04C559.932 83.52 561.172 84.76 563.652 84.76ZM559.932 62.192H567.496H575.06V50.66H567.372H559.932V62.192ZM559.932 39.624H567.496H575.06V32.06C575.06 29.58 573.82 28.34 571.34 28.34H567.372H563.28C561.048 28.34 559.932 29.456 559.932 31.688V39.624Z" fill="#FFCC00"/>
</g>
<defs>
<clipPath id="clip0_13_10">
<rect width="660" height="140" fill="white"/>
</clipPath>
</defs>
</svg>
